<?xml version="1.0" encoding="UTF-8" standalone="no"?>
<!-- Created with Inkscape (http://www.inkscape.org/) -->

<svg
   xmlns:dc="http://purl.org/dc/elements/1.1/"
   xmlns:cc="http://creativecommons.org/ns#"
   xmlns:rdf="http://www.w3.org/1999/02/22-rdf-syntax-ns#"
   xmlns:svg="http://www.w3.org/2000/svg"
   xmlns="http://www.w3.org/2000/svg"
   xmlns:sodipodi="http://sodipodi.sourceforge.net/DTD/sodipodi-0.dtd"
   xmlns:inkscape="http://www.inkscape.org/namespaces/inkscape"
   width="1024"
   height="768"
   id="svg5066"
   version="1.1"
   inkscape:version="0.48.2 r9819"
   sodipodi:docname="infoamazonia-logo.svg"
   inkscape:export-filename="/Users/tristen/Desktop/infoamazonia-logo.png"
   inkscape:export-xdpi="90"
   inkscape:export-ydpi="90">
  <defs
     id="defs5068" />
  <sodipodi:namedview
     id="base"
     pagecolor="#ffffff"
     bordercolor="#666666"
     borderopacity="1.0"
     inkscape:pageopacity="0.0"
     inkscape:pageshadow="2"
     inkscape:zoom="0.5"
     inkscape:cx="594.97507"
     inkscape:cy="369.70249"
     inkscape:document-units="px"
     inkscape:current-layer="layer1"
     showgrid="false"
     inkscape:window-width="1066"
     inkscape:window-height="667"
     inkscape:window-x="52"
     inkscape:window-y="0"
     inkscape:window-maximized="0">
    <inkscape:grid
       type="xygrid"
       id="grid53825"
       empspacing="5"
       visible="true"
       enabled="true"
       snapvisiblegridlinesonly="true" />
  </sodipodi:namedview>
  <metadata
     id="metadata5071">
    <rdf:RDF>
      <cc:Work
         rdf:about="">
        <dc:format>image/svg+xml</dc:format>
        <dc:type
           rdf:resource="http://purl.org/dc/dcmitype/StillImage" />
        <dc:title></dc:title>
      </cc:Work>
    </rdf:RDF>
  </metadata>
  <g
     inkscape:label="Layer 1"
     inkscape:groupmode="layer"
     id="layer1"
     transform="translate(0,-284.36215)">
    <path
       style="color:#000000;fill:#006633;fill-opacity:1;fill-rule:nonzero;stroke:none;stroke-width:2;marker:none;visibility:visible;display:inline;overflow:visible;enable-background:accumulate"
       d="m 808.18618,537.56214 14.3954,0 7.19769,49.37142 28.79078,0 0,65.82859 -79.17466,28.8 z"
       id="path13138"
       inkscape:connector-curvature="0"
       sodipodi:nodetypes="ccccccc" />
    <path
       style="opacity:0.7;color:#000000;fill:#404040;fill-opacity:1;fill-rule:nonzero;stroke:none;stroke-width:2;marker:none;visibility:visible;display:inline;overflow:visible;enable-background:accumulate"
       d="m 844.17467,566.36215 c 0,0 14.39538,-7.2 35.98849,-7.2 57.58156,129.6 -43.18619,151.2 -43.18619,151.2 z"
       id="path14881"
       inkscape:connector-curvature="0"
       sodipodi:nodetypes="cccc" />
    <path
       style="color:#000000;fill:#73a229;fill-opacity:1;fill-rule:nonzero;stroke:none;stroke-width:2;marker:none;visibility:visible;display:inline;overflow:visible;enable-background:accumulate"
       d="m 815.38388,530.36215 c 0,0 -50.38388,36 -50.38388,108 0,72 50.38388,72 57.58158,72 -43.18619,-43.2 -7.1977,-172.80001 -7.1977,-172.80001 0,0 -7.1977,144.00001 21.59309,172.80001 21.59308,-7.19999 43.18619,-23.49871 43.18619,-64.79999 0,-72.00002 -64.77928,-115.20001 -64.77928,-115.20001 z"
       id="path13049"
       inkscape:connector-curvature="0"
       sodipodi:nodetypes="cscccsc" />
    <path
       sodipodi:nodetypes="ccccccc"
       inkscape:connector-curvature="0"
       id="path103495"
       d="m 808.18618,537.56214 14.3954,0 7.19769,49.37142 28.79078,0 0,65.82859 -79.17466,28.8 z"
       style="color:#000000;fill:#006633;fill-opacity:1;fill-rule:nonzero;stroke:none;stroke-width:2;marker:none;visibility:visible;display:inline;overflow:visible;enable-background:accumulate" />
    <path
       sodipodi:nodetypes="cccc"
       inkscape:connector-curvature="0"
       id="path103497"
       d="m 844.17467,566.36215 c 0,0 14.39538,-7.2 35.98849,-7.2 57.58156,129.6 -43.18619,151.2 -43.18619,151.2 z"
       style="opacity:0.7;color:#000000;fill:#404040;fill-opacity:1;fill-rule:nonzero;stroke:none;stroke-width:2;marker:none;visibility:visible;display:inline;overflow:visible;enable-background:accumulate" />
    <path
       sodipodi:nodetypes="cscccsc"
       inkscape:connector-curvature="0"
       id="path103499"
       d="m 815.38388,530.36215 c 0,0 -50.38388,36 -50.38388,108 0,72 50.38388,72 57.58158,72 -43.18619,-43.2 -7.1977,-172.80001 -7.1977,-172.80001 0,0 -7.1977,144.00001 21.59309,172.80001 21.59308,-7.19999 43.18619,-23.49871 43.18619,-64.79999 0,-72.00002 -64.77928,-115.20001 -64.77928,-115.20001 z"
       style="color:#000000;fill:#73a229;fill-opacity:1;fill-rule:nonzero;stroke:none;stroke-width:2;marker:none;visibility:visible;display:inline;overflow:visible;enable-background:accumulate" />
    <path
       sodipodi:nodetypes="czzzc"
       inkscape:connector-curvature="0"
       id="path103501"
       d="m 889.7793,546.76214 c 0,0 -60.93019,9.55138 -79.1747,79.20001 -18.2445,69.64856 -14.39538,86.4 14.3954,86.4 28.79079,0 95,-20 97.4184,-83 2.4184,-63 -32.6391,-82.60001 -32.6391,-82.60001 z"
       style="color:#000000;fill:#006633;fill-opacity:1;fill-rule:nonzero;stroke:none;stroke-width:2;marker:none;visibility:visible;display:inline;overflow:visible;enable-background:accumulate" />
    <path
       style="color:#000000;fill:#006633;fill-opacity:1;fill-rule:nonzero;stroke:none;stroke-width:2;marker:none;visibility:visible;display:inline;overflow:visible;enable-background:accumulate"
       d="m 808.18618,537.56214 14.3954,0 7.19769,49.37142 28.79078,0 0,65.82859 -79.17466,28.8 z"
       id="path103503"
       inkscape:connector-curvature="0"
       sodipodi:nodetypes="ccccccc" />
    <path
       style="opacity:0.7;color:#000000;fill:#404040;fill-opacity:1;fill-rule:nonzero;stroke:none;stroke-width:2;marker:none;visibility:visible;display:inline;overflow:visible;enable-background:accumulate"
       d="m 844.17467,566.36215 c 0,0 14.39538,-7.2 35.98849,-7.2 57.58156,129.6 -43.18619,151.2 -43.18619,151.2 z"
       id="path103505"
       inkscape:connector-curvature="0"
       sodipodi:nodetypes="cccc" />
    <path
       style="color:#000000;fill:#73a229;fill-opacity:1;fill-rule:nonzero;stroke:none;stroke-width:2;marker:none;visibility:visible;display:inline;overflow:visible;enable-background:accumulate"
       d="m 815.38388,530.36215 c 0,0 -50.38388,36 -50.38388,108 0,72 45,74 55,74 -40,-40 -4.61612,-174.80001 -4.61612,-174.80001 0,0 -5.38388,144.80001 21.59309,172.80001 18.02303,-8 43.27825,-23.49881 43.18619,-64.79999 C 880,572.36215 815.38388,530.36215 815.38388,530.36215 z"
       id="path103507"
       inkscape:connector-curvature="0"
       sodipodi:nodetypes="czcccsc" />
    <g
       transform="matrix(2.6666667,0,0,2.6666667,65.453776,146.66516)"
       style="font-size:40px;font-style:normal;font-variant:normal;font-weight:bold;font-stretch:condensed;text-indent:0;text-align:start;text-decoration:none;line-height:125%;letter-spacing:0px;word-spacing:0px;text-transform:none;direction:ltr;block-progression:tb;writing-mode:lr-tb;text-anchor:start;baseline-shift:baseline;color:#000000;fill:#d2d2d2;fill-opacity:1;fill-rule:nonzero;stroke:none;stroke-width:1;marker:none;visibility:visible;display:inline;overflow:visible;enable-background:accumulate;font-family:Open Sans Condensed;-inkscape-font-specification:'Open Sans Condensed, Bold Condensed'"
       id="flowRoot4284-7-1-3-8">
      <path
         d="m 5.454834,192.99818 0,-28.37622 4.96875,0 0,28.37622 -4.96875,0"
         style="font-size:39.75px;fill:#d2d2d2;marker:none"
         id="path53859" />
      <path
         d="m 36.334839,192.99818 -6.443848,0 -8.772949,-20.55432 -0.252319,0 c 0.323479,1.5657 0.485222,3.24782 0.485229,5.04639 l 0,15.50793 -4.891113,0 0,-28.37622 6.482666,0 8.695312,20.34082 0.213501,0 c -0.245867,-1.35863 -0.368792,-2.97606 -0.368774,-4.85229 l 0,-15.48853 4.852295,0 0,28.37622"
         style="font-size:39.75px;fill:#d2d2d2;marker:none"
         id="path53861" />
      <path
         d="m 46.621704,192.99818 -5.240478,0 0,-28.37622 12.713012,0 0,4.56116 -7.472534,0 0,7.88013 6.967896,0 0,4.56116 -6.967896,0 0,11.37377"
         style="font-size:39.75px;fill:#d2d2d2;marker:none"
         id="path53863" />
      <path
         d="m 77.210571,178.77126 c -2.2e-5,4.69703 -0.879904,8.30713 -2.639648,10.83032 -1.759783,2.52319 -4.276505,3.78479 -7.550171,3.78479 -3.28663,0 -5.809821,-1.25513 -7.56958,-3.76538 -1.759768,-2.52319 -2.63965,-6.1527 -2.639649,-10.88855 -1e-6,-4.697 0.879881,-8.29417 2.639649,-10.79151 1.759759,-2.51022 4.29589,-3.76535 7.608398,-3.76538 3.273667,3e-5 5.783918,1.26163 7.530762,3.78479 1.746805,2.51028 2.620217,6.11391 2.620239,10.81092 m -15.003296,0 c -7e-6,3.23487 0.407586,5.69983 1.222779,7.39489 0.815176,1.69508 2.012074,2.54261 3.590698,2.54261 3.18309,0 4.774642,-3.3125 4.774658,-9.9375 -1.6e-5,-6.62498 -1.578628,-9.93748 -4.73584,-9.9375 -1.604502,2e-5 -2.81434,0.84755 -3.629516,2.5426 -0.815193,1.68215 -1.222786,4.14711 -1.222779,7.3949"
         style="font-size:39.75px;fill:#d2d2d2;marker:none"
         id="path53865" />
      <path
         d="m 94.795288,192.99818 -1.630371,-7.16198 -7.394897,0 -1.630372,7.16198 -5.279296,0 7.026123,-28.49267 7.161987,0 7.045528,28.49267 -5.298702,0 m -2.620239,-11.83959 -1.513916,-6.59913 c -0.09059,-0.4011 -0.297619,-1.40391 -0.621094,-3.00842 -0.310558,-1.61741 -0.49818,-2.69785 -0.562866,-3.24133 -0.168223,1.11281 -0.381724,2.34206 -0.640503,3.68774 -0.258799,1.33279 -0.93165,4.38649 -2.018555,9.16114 l 5.356934,0"
         style="font-size:39.75px;fill:#d2d2d2;marker:none"
         id="path53867" />
      <path
         d="m 112.76819,192.99818 -5.39575,-24.16442 -0.2135,0 c 0.24584,1.8633 0.36876,3.57131 0.36877,5.12402 l 0,19.0404 -4.89111,0 0,-28.37622 8.11303,0 4.8523,22.30115 0.15527,0 4.81348,-22.30115 8.22949,0 0,28.37622 -5.00757,0 0,-19.23449 c -2e-5,-1.59153 0.0906,-3.2219 0.27173,-4.89112 l -0.15527,0 -5.37635,24.12561 -5.76452,0"
         style="font-size:39.75px;fill:#d2d2d2;marker:none"
         id="path53869" />
      <path
         d="m 147.27771,192.99818 -1.63037,-7.16198 -7.3949,0 -1.63037,7.16198 -5.2793,0 7.02613,-28.49267 7.16198,0 7.04554,28.49267 -5.29871,0 m -2.62024,-11.83959 -1.51392,-6.59913 c -0.0906,-0.4011 -0.29761,-1.40391 -0.62109,-3.00842 -0.31056,-1.61741 -0.49818,-2.69785 -0.56287,-3.24133 -0.16822,1.11281 -0.38172,2.34206 -0.6405,3.68774 -0.2588,1.33279 -0.93165,4.38649 -2.01855,9.16114 l 5.35693,0"
         style="font-size:39.75px;fill:#d2d2d2;marker:none"
         id="path53871" />
      <path
         d="m 168.80249,192.99818 -15.35266,0 0,-3.68774 9.06409,-20.0885 -8.79236,0 0,-4.59998 14.78979,0 0,3.68775 -9.06408,20.06909 9.35522,0 0,4.61938"
         style="font-size:39.75px;fill:#d2d2d2;marker:none"
         id="path53873" />
      <path
         d="m 191.64709,178.77126 c -2e-5,4.69703 -0.8799,8.30713 -2.63964,10.83032 -1.75979,2.52319 -4.27651,3.78479 -7.55017,3.78479 -3.28663,0 -5.80983,-1.25513 -7.56958,-3.76538 -1.75977,-2.52319 -2.63965,-6.1527 -2.63965,-10.88855 0,-4.697 0.87988,-8.29417 2.63965,-10.79151 1.75975,-2.51022 4.29589,-3.76535 7.60839,-3.76538 3.27367,3e-5 5.78392,1.26163 7.53077,3.78479 1.7468,2.51028 2.62021,6.11391 2.62023,10.81092 m -15.00329,0 c -1e-5,3.23487 0.40758,5.69983 1.22278,7.39489 0.81517,1.69508 2.01207,2.54261 3.5907,2.54261 3.18309,0 4.77464,-3.3125 4.77465,-9.9375 -1e-5,-6.62498 -1.57862,-9.93748 -4.73584,-9.9375 -1.6045,2e-5 -2.81434,0.84755 -3.62951,2.5426 -0.8152,1.68215 -1.22279,4.14711 -1.22278,7.3949"
         style="font-size:39.75px;fill:#d2d2d2;marker:none"
         id="path53875" />
      <path
         d="m 215.67566,192.99818 -6.44385,0 -8.77295,-20.55432 -0.25232,0 c 0.32348,1.5657 0.48523,3.24782 0.48523,5.04639 l 0,15.50793 -4.89111,0 0,-28.37622 6.48267,0 8.69531,20.34082 0.2135,0 c -0.24587,-1.35863 -0.36879,-2.97606 -0.36878,-4.85229 l 0,-15.48853 4.8523,0 0,28.37622"
         style="font-size:39.75px;fill:#d2d2d2;marker:none"
         id="path53877" />
      <path
         d="m 221.6731,192.99818 0,-28.37622 4.96875,0 0,28.37622 -4.96875,0"
         style="font-size:39.75px;fill:#d2d2d2;marker:none"
         id="path53879" />
      <path
         d="m 246.10925,192.99818 -1.63037,-7.16198 -7.3949,0 -1.63037,7.16198 -5.27929,0 7.02612,-28.49267 7.16199,0 7.04553,28.49267 -5.29871,0 m -2.62024,-11.83959 -1.51391,-6.59913 c -0.0906,-0.4011 -0.29762,-1.40391 -0.6211,-3.00842 -0.31055,-1.61741 -0.49818,-2.69785 -0.56286,-3.24133 -0.16823,1.11281 -0.38173,2.34206 -0.64051,3.68774 -0.25879,1.33279 -0.93164,4.38649 -2.01855,9.16114 l 5.35693,0"
         style="font-size:39.75px;fill:#d2d2d2;marker:none"
         id="path53881" />
    </g>
  </g>
</svg>
